<svg xmlns="http://www.w3.org/2000/svg" xmlns:xlink="http://www.w3.org/1999/xlink" width="2309" zoomAndPan="magnify" viewBox="0 0 1731.75 606.749999" height="809" preserveAspectRatio="xMidYMid meet" version="1.0"><defs><g/><clipPath id="be99036cff"><rect x="0" width="1495" y="0" height="393"/></clipPath></defs><g transform="matrix(1, 0, 0, 1, 111, 106)"><g clip-path="url(#be99036cff)"><g fill="#322f30" fill-opacity="0.4"><g transform="translate(0.92543, 281.649197)"><g><path d="M 29.75 -19.875 C 14.71875 -36.269531 7.203125 -56.363281 7.203125 -80.15625 C 7.203125 -103.957031 14.71875 -124.101562 29.75 -140.59375 C 44.78125 -157.082031 63.878906 -165.328125 87.046875 -165.328125 C 108.335938 -165.328125 125.875 -158.648438 139.65625 -145.296875 L 139.65625 -160.640625 L 195.078125 -160.640625 L 195.078125 0 L 140.28125 0 L 140.28125 -18.15625 L 139.65625 -18.15625 C 125.875 -2.914062 108.335938 4.703125 87.046875 4.703125 C 63.878906 4.703125 44.78125 -3.488281 29.75 -19.875 Z M 76.859375 -107.390625 C 69.660156 -100.296875 66.0625 -91.21875 66.0625 -80.15625 C 66.0625 -69.09375 69.503906 -60.0625 76.390625 -53.0625 C 83.285156 -46.070312 92.367188 -42.578125 103.640625 -42.578125 C 114.492188 -42.578125 123.414062 -46.125 130.40625 -53.21875 C 137.40625 -60.320312 140.90625 -69.300781 140.90625 -80.15625 C 140.90625 -91.21875 137.300781 -100.296875 130.09375 -107.390625 C 122.894531 -114.492188 114.078125 -118.046875 103.640625 -118.046875 C 92.992188 -118.046875 84.066406 -114.492188 76.859375 -107.390625 Z M 76.859375 -107.390625 "/></g></g></g><g fill="#322f30" fill-opacity="0.4"><g transform="translate(200.697555, 281.649197)"><g><path d="M 18.78125 0 L 18.78125 -160.640625 L 74.203125 -160.640625 L 74.203125 -143.71875 L 74.84375 -143.71875 C 89.238281 -158.125 104.578125 -165.328125 120.859375 -165.328125 C 132.554688 -165.328125 143.519531 -162.925781 153.75 -158.125 C 163.976562 -153.320312 171.703125 -145.910156 176.921875 -135.890625 C 193.203125 -155.515625 210.941406 -165.328125 230.140625 -165.328125 C 247.265625 -165.328125 261.984375 -160.523438 274.296875 -150.921875 C 286.609375 -141.316406 292.765625 -126.289062 292.765625 -105.84375 L 292.765625 0 L 237.34375 0 L 237.34375 -90.8125 C 237.34375 -99.363281 234.992188 -106.507812 230.296875 -112.25 C 225.609375 -117.988281 218.566406 -120.859375 209.171875 -120.859375 C 201.023438 -120.859375 194.8125 -118.40625 190.53125 -113.5 C 186.257812 -108.601562 183.910156 -102.707031 183.484375 -95.8125 L 183.484375 0 L 128.0625 0 L 128.0625 -90.8125 C 128.0625 -99.363281 125.710938 -106.507812 121.015625 -112.25 C 116.328125 -117.988281 109.285156 -120.859375 99.890625 -120.859375 C 91.328125 -120.859375 84.90625 -118.195312 80.625 -112.875 C 76.34375 -107.550781 74.203125 -101.238281 74.203125 -93.9375 L 74.203125 0 Z M 18.78125 0 "/></g></g></g><g fill="#322f30" fill-opacity="0.4"><g transform="translate(495.036055, 281.649197)"><g><path d="M 29.75 -19.875 C 14.71875 -36.269531 7.203125 -56.363281 7.203125 -80.15625 C 7.203125 -103.957031 14.71875 -124.101562 29.75 -140.59375 C 44.78125 -157.082031 63.878906 -165.328125 87.046875 -165.328125 C 108.335938 -165.328125 125.875 -158.648438 139.65625 -145.296875 L 139.65625 -160.640625 L 195.078125 -160.640625 L 195.078125 0 L 140.28125 0 L 140.28125 -18.15625 L 139.65625 -18.15625 C 125.875 -2.914062 108.335938 4.703125 87.046875 4.703125 C 63.878906 4.703125 44.78125 -3.488281 29.75 -19.875 Z M 76.859375 -107.390625 C 69.660156 -100.296875 66.0625 -91.21875 66.0625 -80.15625 C 66.0625 -69.09375 69.503906 -60.0625 76.390625 -53.0625 C 83.285156 -46.070312 92.367188 -42.578125 103.640625 -42.578125 C 114.492188 -42.578125 123.414062 -46.125 130.40625 -53.21875 C 137.40625 -60.320312 140.90625 -69.300781 140.90625 -80.15625 C 140.90625 -91.21875 137.300781 -100.296875 130.09375 -107.390625 C 122.894531 -114.492188 114.078125 -118.046875 103.640625 -118.046875 C 92.992188 -118.046875 84.066406 -114.492188 76.859375 -107.390625 Z M 76.859375 -107.390625 "/></g></g></g><g fill="#322f30" fill-opacity="0.4"><g transform="translate(694.80818, 281.649197)"><g><path d="M 11.578125 39.453125 L 56.984375 17.21875 C 65.335938 31 79.847656 37.890625 100.515625 37.890625 C 110.117188 37.890625 119.039062 34.804688 127.28125 28.640625 C 135.53125 22.484375 139.65625 13.039062 139.65625 0.3125 L 139.65625 -11.578125 C 129.84375 -0.722656 112.304688 4.703125 87.046875 4.703125 C 63.878906 4.703125 44.78125 -3.488281 29.75 -19.875 C 14.71875 -36.269531 7.203125 -56.363281 7.203125 -80.15625 C 7.203125 -103.957031 14.71875 -124.101562 29.75 -140.59375 C 44.78125 -157.082031 63.878906 -165.328125 87.046875 -165.328125 C 107.710938 -165.328125 124.9375 -158.960938 138.71875 -146.234375 L 139.65625 -146.234375 L 139.65625 -160.640625 L 195.078125 -160.640625 L 195.078125 4.390625 C 195.078125 30.484375 186.410156 50.625 169.078125 64.8125 C 151.753906 79.007812 128.898438 86.109375 100.515625 86.109375 C 54.585938 86.109375 24.941406 70.554688 11.578125 39.453125 Z M 76.859375 -107.390625 C 69.660156 -100.296875 66.0625 -91.21875 66.0625 -80.15625 C 66.0625 -69.09375 69.503906 -60.0625 76.390625 -53.0625 C 83.285156 -46.070312 92.367188 -42.578125 103.640625 -42.578125 C 114.492188 -42.578125 123.414062 -46.125 130.40625 -53.21875 C 137.40625 -60.320312 140.90625 -69.300781 140.90625 -80.15625 C 140.90625 -91.21875 137.300781 -100.296875 130.09375 -107.390625 C 122.894531 -114.492188 114.078125 -118.046875 103.640625 -118.046875 C 92.992188 -118.046875 84.066406 -114.492188 76.859375 -107.390625 Z M 76.859375 -107.390625 "/></g></g></g><g fill="#322f30" fill-opacity="0.4"><g transform="translate(894.580305, 281.649197)"><g><path d="M 29.75 -19.875 C 14.71875 -36.269531 7.203125 -56.363281 7.203125 -80.15625 C 7.203125 -103.957031 14.71875 -124.101562 29.75 -140.59375 C 44.78125 -157.082031 63.878906 -165.328125 87.046875 -165.328125 C 108.335938 -165.328125 125.875 -158.648438 139.65625 -145.296875 L 139.65625 -160.640625 L 195.078125 -160.640625 L 195.078125 0 L 140.28125 0 L 140.28125 -18.15625 L 139.65625 -18.15625 C 125.875 -2.914062 108.335938 4.703125 87.046875 4.703125 C 63.878906 4.703125 44.78125 -3.488281 29.75 -19.875 Z M 76.859375 -107.390625 C 69.660156 -100.296875 66.0625 -91.21875 66.0625 -80.15625 C 66.0625 -69.09375 69.503906 -60.0625 76.390625 -53.0625 C 83.285156 -46.070312 92.367188 -42.578125 103.640625 -42.578125 C 114.492188 -42.578125 123.414062 -46.125 130.40625 -53.21875 C 137.40625 -60.320312 140.90625 -69.300781 140.90625 -80.15625 C 140.90625 -91.21875 137.300781 -100.296875 130.09375 -107.390625 C 122.894531 -114.492188 114.078125 -118.046875 103.640625 -118.046875 C 92.992188 -118.046875 84.066406 -114.492188 76.859375 -107.390625 Z M 76.859375 -107.390625 "/></g></g></g><g fill="#322f30" fill-opacity="0.4"><g transform="translate(1094.35243, 281.649197)"><g><path d="M 29.75 -19.875 C 14.71875 -36.269531 7.203125 -56.363281 7.203125 -80.15625 C 7.203125 -103.957031 14.71875 -124.101562 29.75 -140.59375 C 44.78125 -157.082031 63.878906 -165.328125 87.046875 -165.328125 C 108.335938 -165.328125 125.875 -158.648438 139.65625 -145.296875 L 139.65625 -269.28125 L 195.078125 -269.28125 L 195.078125 0 L 140.28125 0 L 140.28125 -18.15625 L 139.65625 -18.15625 C 125.875 -2.914062 108.335938 4.703125 87.046875 4.703125 C 63.878906 4.703125 44.78125 -3.488281 29.75 -19.875 Z M 76.859375 -107.390625 C 69.660156 -100.296875 66.0625 -91.21875 66.0625 -80.15625 C 66.0625 -69.09375 69.503906 -60.0625 76.390625 -53.0625 C 83.285156 -46.070312 92.367188 -42.578125 103.640625 -42.578125 C 114.492188 -42.578125 123.414062 -46.125 130.40625 -53.21875 C 137.40625 -60.320312 140.90625 -69.300781 140.90625 -80.15625 C 140.90625 -91.21875 137.300781 -100.296875 130.09375 -107.390625 C 122.894531 -114.492188 114.078125 -118.046875 103.640625 -118.046875 C 92.992188 -118.046875 84.066406 -114.492188 76.859375 -107.390625 Z M 76.859375 -107.390625 "/></g></g></g><g fill="#322f30" fill-opacity="0.4"><g transform="translate(1294.124555, 281.649197)"><g><path d="M 29.75 -19.875 C 14.71875 -36.269531 7.203125 -56.363281 7.203125 -80.15625 C 7.203125 -103.957031 14.71875 -124.101562 29.75 -140.59375 C 44.78125 -157.082031 63.878906 -165.328125 87.046875 -165.328125 C 108.335938 -165.328125 125.875 -158.648438 139.65625 -145.296875 L 139.65625 -160.640625 L 195.078125 -160.640625 L 195.078125 0 L 140.28125 0 L 140.28125 -18.15625 L 139.65625 -18.15625 C 125.875 -2.914062 108.335938 4.703125 87.046875 4.703125 C 63.878906 4.703125 44.78125 -3.488281 29.75 -19.875 Z M 76.859375 -107.390625 C 69.660156 -100.296875 66.0625 -91.21875 66.0625 -80.15625 C 66.0625 -69.09375 69.503906 -60.0625 76.390625 -53.0625 C 83.285156 -46.070312 92.367188 -42.578125 103.640625 -42.578125 C 114.492188 -42.578125 123.414062 -46.125 130.40625 -53.21875 C 137.40625 -60.320312 140.90625 -69.300781 140.90625 -80.15625 C 140.90625 -91.21875 137.300781 -100.296875 130.09375 -107.390625 C 122.894531 -114.492188 114.078125 -118.046875 103.640625 -118.046875 C 92.992188 -118.046875 84.066406 -114.492188 76.859375 -107.390625 Z M 76.859375 -107.390625 "/></g></g></g><g fill="#eb5e43" fill-opacity="1"><g transform="translate(0.92543, 281.649197)"><g><path d="M 29.75 -19.875 C 14.71875 -36.269531 7.203125 -56.363281 7.203125 -80.15625 C 7.203125 -103.957031 14.71875 -124.101562 29.75 -140.59375 C 44.78125 -157.082031 63.878906 -165.328125 87.046875 -165.328125 C 108.335938 -165.328125 125.875 -158.648438 139.65625 -145.296875 L 139.65625 -160.640625 L 195.078125 -160.640625 L 195.078125 0 L 140.28125 0 L 140.28125 -18.15625 L 139.65625 -18.15625 C 125.875 -2.914062 108.335938 4.703125 87.046875 4.703125 C 63.878906 4.703125 44.78125 -3.488281 29.75 -19.875 Z M 76.859375 -107.390625 C 69.660156 -100.296875 66.0625 -91.21875 66.0625 -80.15625 C 66.0625 -69.09375 69.503906 -60.0625 76.390625 -53.0625 C 83.285156 -46.070312 92.367188 -42.578125 103.640625 -42.578125 C 114.492188 -42.578125 123.414062 -46.125 130.40625 -53.21875 C 137.40625 -60.320312 140.90625 -69.300781 140.90625 -80.15625 C 140.90625 -91.21875 137.300781 -100.296875 130.09375 -107.390625 C 122.894531 -114.492188 114.078125 -118.046875 103.640625 -118.046875 C 92.992188 -118.046875 84.066406 -114.492188 76.859375 -107.390625 Z M 76.859375 -107.390625 "/></g></g></g><g fill="#eb5e43" fill-opacity="1"><g transform="translate(200.697555, 281.649197)"><g><path d="M 18.78125 0 L 18.78125 -160.640625 L 74.203125 -160.640625 L 74.203125 -143.71875 L 74.84375 -143.71875 C 89.238281 -158.125 104.578125 -165.328125 120.859375 -165.328125 C 132.554688 -165.328125 143.519531 -162.925781 153.75 -158.125 C 163.976562 -153.320312 171.703125 -145.910156 176.921875 -135.890625 C 193.203125 -155.515625 210.941406 -165.328125 230.140625 -165.328125 C 247.265625 -165.328125 261.984375 -160.523438 274.296875 -150.921875 C 286.609375 -141.316406 292.765625 -126.289062 292.765625 -105.84375 L 292.765625 0 L 237.34375 0 L 237.34375 -90.8125 C 237.34375 -99.363281 234.992188 -106.507812 230.296875 -112.25 C 225.609375 -117.988281 218.566406 -120.859375 209.171875 -120.859375 C 201.023438 -120.859375 194.8125 -118.40625 190.53125 -113.5 C 186.257812 -108.601562 183.910156 -102.707031 183.484375 -95.8125 L 183.484375 0 L 128.0625 0 L 128.0625 -90.8125 C 128.0625 -99.363281 125.710938 -106.507812 121.015625 -112.25 C 116.328125 -117.988281 109.285156 -120.859375 99.890625 -120.859375 C 91.328125 -120.859375 84.90625 -118.195312 80.625 -112.875 C 76.34375 -107.550781 74.203125 -101.238281 74.203125 -93.9375 L 74.203125 0 Z M 18.78125 0 "/></g></g></g><g fill="#322f30" fill-opacity="1"><g transform="translate(495.036055, 281.649197)"><g><path d="M 29.75 -19.875 C 14.71875 -36.269531 7.203125 -56.363281 7.203125 -80.15625 C 7.203125 -103.957031 14.71875 -124.101562 29.75 -140.59375 C 44.78125 -157.082031 63.878906 -165.328125 87.046875 -165.328125 C 108.335938 -165.328125 125.875 -158.648438 139.65625 -145.296875 L 139.65625 -160.640625 L 195.078125 -160.640625 L 195.078125 0 L 140.28125 0 L 140.28125 -18.15625 L 139.65625 -18.15625 C 125.875 -2.914062 108.335938 4.703125 87.046875 4.703125 C 63.878906 4.703125 44.78125 -3.488281 29.75 -19.875 Z M 76.859375 -107.390625 C 69.660156 -100.296875 66.0625 -91.21875 66.0625 -80.15625 C 66.0625 -69.09375 69.503906 -60.0625 76.390625 -53.0625 C 83.285156 -46.070312 92.367188 -42.578125 103.640625 -42.578125 C 114.492188 -42.578125 123.414062 -46.125 130.40625 -53.21875 C 137.40625 -60.320312 140.90625 -69.300781 140.90625 -80.15625 C 140.90625 -91.21875 137.300781 -100.296875 130.09375 -107.390625 C 122.894531 -114.492188 114.078125 -118.046875 103.640625 -118.046875 C 92.992188 -118.046875 84.066406 -114.492188 76.859375 -107.390625 Z M 76.859375 -107.390625 "/></g></g></g><g fill="#322f30" fill-opacity="1"><g transform="translate(694.80818, 281.649197)"><g><path d="M 11.578125 39.453125 L 56.984375 17.21875 C 65.335938 31 79.847656 37.890625 100.515625 37.890625 C 110.117188 37.890625 119.039062 34.804688 127.28125 28.640625 C 135.53125 22.484375 139.65625 13.039062 139.65625 0.3125 L 139.65625 -11.578125 C 129.84375 -0.722656 112.304688 4.703125 87.046875 4.703125 C 63.878906 4.703125 44.78125 -3.488281 29.75 -19.875 C 14.71875 -36.269531 7.203125 -56.363281 7.203125 -80.15625 C 7.203125 -103.957031 14.71875 -124.101562 29.75 -140.59375 C 44.78125 -157.082031 63.878906 -165.328125 87.046875 -165.328125 C 107.710938 -165.328125 124.9375 -158.960938 138.71875 -146.234375 L 139.65625 -146.234375 L 139.65625 -160.640625 L 195.078125 -160.640625 L 195.078125 4.390625 C 195.078125 30.484375 186.410156 50.625 169.078125 64.8125 C 151.753906 79.007812 128.898438 86.109375 100.515625 86.109375 C 54.585938 86.109375 24.941406 70.554688 11.578125 39.453125 Z M 76.859375 -107.390625 C 69.660156 -100.296875 66.0625 -91.21875 66.0625 -80.15625 C 66.0625 -69.09375 69.503906 -60.0625 76.390625 -53.0625 C 83.285156 -46.070312 92.367188 -42.578125 103.640625 -42.578125 C 114.492188 -42.578125 123.414062 -46.125 130.40625 -53.21875 C 137.40625 -60.320312 140.90625 -69.300781 140.90625 -80.15625 C 140.90625 -91.21875 137.300781 -100.296875 130.09375 -107.390625 C 122.894531 -114.492188 114.078125 -118.046875 103.640625 -118.046875 C 92.992188 -118.046875 84.066406 -114.492188 76.859375 -107.390625 Z M 76.859375 -107.390625 "/></g></g></g><g fill="#322f30" fill-opacity="1"><g transform="translate(894.580305, 281.649197)"><g><path d="M 29.75 -19.875 C 14.71875 -36.269531 7.203125 -56.363281 7.203125 -80.15625 C 7.203125 -103.957031 14.71875 -124.101562 29.75 -140.59375 C 44.78125 -157.082031 63.878906 -165.328125 87.046875 -165.328125 C 108.335938 -165.328125 125.875 -158.648438 139.65625 -145.296875 L 139.65625 -160.640625 L 195.078125 -160.640625 L 195.078125 0 L 140.28125 0 L 140.28125 -18.15625 L 139.65625 -18.15625 C 125.875 -2.914062 108.335938 4.703125 87.046875 4.703125 C 63.878906 4.703125 44.78125 -3.488281 29.75 -19.875 Z M 76.859375 -107.390625 C 69.660156 -100.296875 66.0625 -91.21875 66.0625 -80.15625 C 66.0625 -69.09375 69.503906 -60.0625 76.390625 -53.0625 C 83.285156 -46.070312 92.367188 -42.578125 103.640625 -42.578125 C 114.492188 -42.578125 123.414062 -46.125 130.40625 -53.21875 C 137.40625 -60.320312 140.90625 -69.300781 140.90625 -80.15625 C 140.90625 -91.21875 137.300781 -100.296875 130.09375 -107.390625 C 122.894531 -114.492188 114.078125 -118.046875 103.640625 -118.046875 C 92.992188 -118.046875 84.066406 -114.492188 76.859375 -107.390625 Z M 76.859375 -107.390625 "/></g></g></g><g fill="#322f30" fill-opacity="1"><g transform="translate(1094.35243, 281.649197)"><g><path d="M 29.75 -19.875 C 14.71875 -36.269531 7.203125 -56.363281 7.203125 -80.15625 C 7.203125 -103.957031 14.71875 -124.101562 29.75 -140.59375 C 44.78125 -157.082031 63.878906 -165.328125 87.046875 -165.328125 C 108.335938 -165.328125 125.875 -158.648438 139.65625 -145.296875 L 139.65625 -269.28125 L 195.078125 -269.28125 L 195.078125 0 L 140.28125 0 L 140.28125 -18.15625 L 139.65625 -18.15625 C 125.875 -2.914062 108.335938 4.703125 87.046875 4.703125 C 63.878906 4.703125 44.78125 -3.488281 29.75 -19.875 Z M 76.859375 -107.390625 C 69.660156 -100.296875 66.0625 -91.21875 66.0625 -80.15625 C 66.0625 -69.09375 69.503906 -60.0625 76.390625 -53.0625 C 83.285156 -46.070312 92.367188 -42.578125 103.640625 -42.578125 C 114.492188 -42.578125 123.414062 -46.125 130.40625 -53.21875 C 137.40625 -60.320312 140.90625 -69.300781 140.90625 -80.15625 C 140.90625 -91.21875 137.300781 -100.296875 130.09375 -107.390625 C 122.894531 -114.492188 114.078125 -118.046875 103.640625 -118.046875 C 92.992188 -118.046875 84.066406 -114.492188 76.859375 -107.390625 Z M 76.859375 -107.390625 "/></g></g></g><g fill="#322f30" fill-opacity="1"><g transform="translate(1294.124555, 281.649197)"><g><path d="M 29.75 -19.875 C 14.71875 -36.269531 7.203125 -56.363281 7.203125 -80.15625 C 7.203125 -103.957031 14.71875 -124.101562 29.75 -140.59375 C 44.78125 -157.082031 63.878906 -165.328125 87.046875 -165.328125 C 108.335938 -165.328125 125.875 -158.648438 139.65625 -145.296875 L 139.65625 -160.640625 L 195.078125 -160.640625 L 195.078125 0 L 140.28125 0 L 140.28125 -18.15625 L 139.65625 -18.15625 C 125.875 -2.914062 108.335938 4.703125 87.046875 4.703125 C 63.878906 4.703125 44.78125 -3.488281 29.75 -19.875 Z M 76.859375 -107.390625 C 69.660156 -100.296875 66.0625 -91.21875 66.0625 -80.15625 C 66.0625 -69.09375 69.503906 -60.0625 76.390625 -53.0625 C 83.285156 -46.070312 92.367188 -42.578125 103.640625 -42.578125 C 114.492188 -42.578125 123.414062 -46.125 130.40625 -53.21875 C 137.40625 -60.320312 140.90625 -69.300781 140.90625 -80.15625 C 140.90625 -91.21875 137.300781 -100.296875 130.09375 -107.390625 C 122.894531 -114.492188 114.078125 -118.046875 103.640625 -118.046875 C 92.992188 -118.046875 84.066406 -114.492188 76.859375 -107.390625 Z M 76.859375 -107.390625 "/></g></g></g></g></g><g fill="#322f30" fill-opacity="1"><g transform="translate(159.482399, 478.099535)"><g><path d="M 12.859375 -29.9375 L 12.859375 -20.21875 L 29.875 -20.21875 L 29.875 -13.390625 L 12.859375 -13.390625 L 12.859375 0 L 4.359375 0 L 4.359375 -36.765625 L 32.140625 -36.765625 L 32.140625 -29.9375 Z M 12.859375 -29.9375 "/></g></g></g><g fill="#322f30" fill-opacity="1"><g transform="translate(222.555103, 478.099535)"><g><path d="M 22.15625 0.625 C 18.34375 0.625 14.90625 -0.195312 11.84375 -1.84375 C 8.78125 -3.488281 6.378906 -5.753906 4.640625 -8.640625 C 2.910156 -11.523438 2.046875 -14.769531 2.046875 -18.375 C 2.046875 -21.988281 2.910156 -25.238281 4.640625 -28.125 C 6.378906 -31.007812 8.78125 -33.273438 11.84375 -34.921875 C 14.90625 -36.566406 18.34375 -37.390625 22.15625 -37.390625 C 25.976562 -37.390625 29.410156 -36.566406 32.453125 -34.921875 C 35.492188 -33.273438 37.890625 -31.007812 39.640625 -28.125 C 41.398438 -25.238281 42.28125 -21.988281 42.28125 -18.375 C 42.28125 -14.769531 41.398438 -11.523438 39.640625 -8.640625 C 37.890625 -5.753906 35.492188 -3.488281 32.453125 -1.84375 C 29.410156 -0.195312 25.976562 0.625 22.15625 0.625 Z M 22.15625 -6.609375 C 24.332031 -6.609375 26.296875 -7.109375 28.046875 -8.109375 C 29.796875 -9.109375 31.164062 -10.5 32.15625 -12.28125 C 33.15625 -14.070312 33.65625 -16.101562 33.65625 -18.375 C 33.65625 -20.65625 33.15625 -22.6875 32.15625 -24.46875 C 31.164062 -26.257812 29.796875 -27.648438 28.046875 -28.640625 C 26.296875 -29.640625 24.332031 -30.140625 22.15625 -30.140625 C 19.988281 -30.140625 18.03125 -29.640625 16.28125 -28.640625 C 14.53125 -27.648438 13.15625 -26.257812 12.15625 -24.46875 C 11.15625 -22.6875 10.65625 -20.65625 10.65625 -18.375 C 10.65625 -16.101562 11.15625 -14.070312 12.15625 -12.28125 C 13.15625 -10.5 14.53125 -9.109375 16.28125 -8.109375 C 18.03125 -7.109375 19.988281 -6.609375 22.15625 -6.609375 Z M 22.15625 -6.609375 "/></g></g></g><g fill="#322f30" fill-opacity="1"><g transform="translate(296.393084, 478.099535)"><g><path d="M 20.6875 0.625 C 15.4375 0.625 11.347656 -0.828125 8.421875 -3.734375 C 5.503906 -6.640625 4.046875 -10.785156 4.046875 -16.171875 L 4.046875 -36.765625 L 12.546875 -36.765625 L 12.546875 -16.484375 C 12.546875 -9.898438 15.28125 -6.609375 20.75 -6.609375 C 23.40625 -6.609375 25.429688 -7.40625 26.828125 -9 C 28.234375 -10.59375 28.9375 -13.085938 28.9375 -16.484375 L 28.9375 -36.765625 L 37.34375 -36.765625 L 37.34375 -16.171875 C 37.34375 -10.785156 35.878906 -6.640625 32.953125 -3.734375 C 30.023438 -0.828125 25.9375 0.625 20.6875 0.625 Z M 20.6875 0.625 "/></g></g></g><g fill="#322f30" fill-opacity="1"><g transform="translate(367.290322, 478.099535)"><g><path d="M 38.078125 -36.765625 L 38.078125 0 L 31.09375 0 L 12.765625 -22.3125 L 12.765625 0 L 4.359375 0 L 4.359375 -36.765625 L 11.390625 -36.765625 L 29.671875 -14.4375 L 29.671875 -36.765625 Z M 38.078125 -36.765625 "/></g></g></g><g fill="#322f30" fill-opacity="1"><g transform="translate(439.237809, 478.099535)"><g><path d="M 4.359375 -36.765625 L 21.0625 -36.765625 C 25.050781 -36.765625 28.578125 -36 31.640625 -34.46875 C 34.703125 -32.945312 37.082031 -30.800781 38.78125 -28.03125 C 40.476562 -25.269531 41.328125 -22.050781 41.328125 -18.375 C 41.328125 -14.695312 40.476562 -11.472656 38.78125 -8.703125 C 37.082031 -5.941406 34.703125 -3.800781 31.640625 -2.28125 C 28.578125 -0.757812 25.050781 0 21.0625 0 L 4.359375 0 Z M 20.640625 -6.984375 C 24.316406 -6.984375 27.25 -8.003906 29.4375 -10.046875 C 31.625 -12.097656 32.71875 -14.875 32.71875 -18.375 C 32.71875 -21.875 31.625 -24.648438 29.4375 -26.703125 C 27.25 -28.753906 24.316406 -29.78125 20.640625 -29.78125 L 12.859375 -29.78125 L 12.859375 -6.984375 Z M 20.640625 -6.984375 "/></g></g></g><g fill="#322f30" fill-opacity="1"><g transform="translate(512.130555, 478.099535)"><g><path d="M 28.5625 -7.875 L 11.5 -7.875 L 8.25 0 L -0.46875 0 L 15.90625 -36.765625 L 24.3125 -36.765625 L 40.75 0 L 31.828125 0 Z M 25.890625 -14.34375 L 20.0625 -28.40625 L 14.234375 -14.34375 Z M 25.890625 -14.34375 "/></g></g></g><g fill="#322f30" fill-opacity="1"><g transform="translate(581.872461, 478.099535)"><g><path d="M 11.96875 -29.828125 L 0.203125 -29.828125 L 0.203125 -36.765625 L 32.25 -36.765625 L 32.25 -29.828125 L 20.484375 -29.828125 L 20.484375 0 L 11.96875 0 Z M 11.96875 -29.828125 "/></g></g></g><g fill="#322f30" fill-opacity="1"><g transform="translate(643.842408, 478.099535)"><g><path d="M 4.359375 -36.765625 L 12.859375 -36.765625 L 12.859375 0 L 4.359375 0 Z M 4.359375 -36.765625 "/></g></g></g><g fill="#322f30" fill-opacity="1"><g transform="translate(690.583386, 478.099535)"><g><path d="M 22.15625 0.625 C 18.34375 0.625 14.90625 -0.195312 11.84375 -1.84375 C 8.78125 -3.488281 6.378906 -5.753906 4.640625 -8.640625 C 2.910156 -11.523438 2.046875 -14.769531 2.046875 -18.375 C 2.046875 -21.988281 2.910156 -25.238281 4.640625 -28.125 C 6.378906 -31.007812 8.78125 -33.273438 11.84375 -34.921875 C 14.90625 -36.566406 18.34375 -37.390625 22.15625 -37.390625 C 25.976562 -37.390625 29.410156 -36.566406 32.453125 -34.921875 C 35.492188 -33.273438 37.890625 -31.007812 39.640625 -28.125 C 41.398438 -25.238281 42.28125 -21.988281 42.28125 -18.375 C 42.28125 -14.769531 41.398438 -11.523438 39.640625 -8.640625 C 37.890625 -5.753906 35.492188 -3.488281 32.453125 -1.84375 C 29.410156 -0.195312 25.976562 0.625 22.15625 0.625 Z M 22.15625 -6.609375 C 24.332031 -6.609375 26.296875 -7.109375 28.046875 -8.109375 C 29.796875 -9.109375 31.164062 -10.5 32.15625 -12.28125 C 33.15625 -14.070312 33.65625 -16.101562 33.65625 -18.375 C 33.65625 -20.65625 33.15625 -22.6875 32.15625 -24.46875 C 31.164062 -26.257812 29.796875 -27.648438 28.046875 -28.640625 C 26.296875 -29.640625 24.332031 -30.140625 22.15625 -30.140625 C 19.988281 -30.140625 18.03125 -29.640625 16.28125 -28.640625 C 14.53125 -27.648438 13.15625 -26.257812 12.15625 -24.46875 C 11.15625 -22.6875 10.65625 -20.65625 10.65625 -18.375 C 10.65625 -16.101562 11.15625 -14.070312 12.15625 -12.28125 C 13.15625 -10.5 14.53125 -9.109375 16.28125 -8.109375 C 18.03125 -7.109375 19.988281 -6.609375 22.15625 -6.609375 Z M 22.15625 -6.609375 "/></g></g></g><g fill="#322f30" fill-opacity="1"><g transform="translate(764.421368, 478.099535)"><g><path d="M 38.078125 -36.765625 L 38.078125 0 L 31.09375 0 L 12.765625 -22.3125 L 12.765625 0 L 4.359375 0 L 4.359375 -36.765625 L 11.390625 -36.765625 L 29.671875 -14.4375 L 29.671875 -36.765625 Z M 38.078125 -36.765625 "/></g></g></g></svg>